<?xml version="1.0" encoding="utf-8"?>
<!-- Generator: Adobe Illustrator 19.0.0, SVG Export Plug-In . SVG Version: 6.00 Build 0)  -->
<svg version="1.1" id="Layer_1" xmlns="http://www.w3.org/2000/svg" xmlns:xlink="http://www.w3.org/1999/xlink" x="0px" y="0px"
	 viewBox="0 0 41.329 36.651" enable-background="new 0 0 41.329 36.651" xml:space="preserve">
<g id="XMLID_54_">
	<path id="XMLID_55_" d="M13.537,36.651V7.633c-0.072-0.288-0.072-1.296-0.36-2.232c-0.36-0.937-1.44-2.809-4.104-2.736
		c-2.088,0-3.96,1.08-5.112,2.736c-0.36,0.504-0.504,0.792-0.937,1.8v29.451H0V0.432h3.024v3.457C3.6,2.953,4.032,2.521,4.392,2.16
		C6.336,0.216,8.713,0,9.721,0c2.952,0.072,5.617,1.512,6.48,4.608c0.288,1.008,0.36,1.944,0.36,2.953v29.09H13.537z"/>
	<path id="XMLID_57_" d="M37.081,35.643c-0.504-0.432-0.72-0.72-1.008-1.8c-1.008,0.792-3.313,2.808-6.985,2.808
		c-5.041,0-7.057-4.032-7.057-8.497c0-2.809,0.72-4.608,1.296-5.688c2.088-3.816,6.048-5.257,9.504-7.201
		c1.44-0.792,1.944-1.08,3.168-2.088V9.073c0-1.872,0.072-4.032-1.728-5.256c-0.864-0.648-1.8-0.648-2.88-0.648
		c-2.664,0-3.6,1.152-4.104,2.304c-0.792,1.728-0.72,4.249-0.648,6.121h-3.096c0-3.96,0-5.544,0.864-7.417
		c1.8-4.033,6.264-3.96,7.417-3.96c1.512,0,2.88,0.288,4.249,1.008c2.808,1.584,3.096,4.104,3.096,6.985v24.338
		c0.144,1.296,1.152,1.224,2.16,1.224v2.88C39.025,36.651,37.945,36.436,37.081,35.643z M36.073,16.562
		c-0.72,0.576-1.512,1.08-2.304,1.512c-1.224,0.72-2.448,1.296-3.601,1.944c-3.312,2.016-5.041,4.248-5.041,8.208
		c0,1.152,0.216,5.544,4.752,5.544c2.809,0,4.464-1.512,6.193-3.384V16.562z"/>
</g>
</svg>
